<svg xmlns="http://www.w3.org/2000/svg" xmlns:xlink="http://www.w3.org/1999/xlink" width="581" height="633" viewBox="0 0 581 633"><defs><linearGradient id="a" x1="0.5" x2="0.5" y2="1" gradientUnits="objectBoundingBox"><stop offset="0" stop-color="#5360ff"/><stop offset="1" stop-color="#3277e5"/><stop offset="1" stop-color="#2a8052"/></linearGradient><filter id="b" x="19" y="321" width="543" height="292" filterUnits="userSpaceOnUse"><feOffset dy="3" input="SourceAlpha"/><feGaussianBlur stdDeviation="3" result="c"/><feFlood flood-opacity="0.161"/><feComposite operator="in" in2="c"/><feComposite in="SourceGraphic"/></filter></defs><g transform="translate(-361 -1483)"><rect width="581" height="633" rx="15" transform="translate(361 1483)" fill="url(#a)"/><text transform="translate(565 1550)" fill="#fff" font-size="45" font-family="HelveticaNeue-Bold, Helvetica Neue" font-weight="700"><tspan x="-176.22" y="0">Block to { code }</tspan></text><text transform="translate(574 1591)" fill="#52ffb6" font-size="20" font-family="HelveticaNeue, Helvetica Neue"><tspan x="-184.62" y="0">View</tspan><tspan y="0" xml:space="preserve" fill="#fff"> / </tspan><tspan y="0" fill="#ffa740">edit </tspan><tspan y="0" fill="#fff">/ </tspan><tspan y="0" fill="#eaff46">override</tspan><tspan y="0" xml:space="preserve" fill="#fff"> your code with ease</tspan></text><g transform="translate(0 117)"><g transform="matrix(1, 0, 0, 1, 361, 1366)" filter="url(#b)"><rect width="525" height="274" rx="5" transform="translate(28 327)" fill="#fff"/></g><g transform="translate(66 -109)"><g transform="translate(366 1870)" fill="#fff" stroke="#9f9f9f" stroke-width="2"><rect width="110" height="39" rx="3" stroke="none"/><rect x="1" y="1" width="108" height="37" rx="2" fill="none"/></g><text transform="translate(421 1898)" fill="#9f9f9f" font-size="20" font-family="HelveticaNeue-Medium, Helvetica Neue" font-weight="500"><tspan x="-18.15" y="0">Edit</tspan></text></g><g transform="translate(379 -109)"><g transform="translate(367 1870)" fill="#fff" stroke="#9f9f9f" stroke-width="2"><rect width="124" height="39" rx="3" stroke="none"/><rect x="1" y="1" width="122" height="37" rx="2" fill="none"/></g><text transform="translate(429 1898)" fill="#9f9f9f" font-size="20" font-family="HelveticaNeue-Medium, Helvetica Neue" font-weight="500"><tspan x="-26.68" y="0">Reset</tspan></text></g><g transform="translate(199.521 -109)"><g transform="translate(367.479 1870)" fill="#fff" stroke="#9f9f9f" stroke-width="2"><rect width="156" height="39" rx="3" stroke="none"/><rect x="1" y="1" width="154" height="37" rx="2" fill="none"/></g><text transform="translate(445.479 1898)" fill="#9f9f9f" font-size="20" font-family="HelveticaNeue-Medium, Helvetica Neue" font-weight="500"><tspan x="-39.47" y="0">Override</tspan></text></g><g transform="translate(432 1824)" fill="none" stroke="#4b93fc" stroke-width="2"><rect width="438" height="97" rx="10" stroke="none"/><rect x="1" y="1" width="436" height="95" rx="9" fill="none"/></g><text transform="translate(519 1854)" fill="#454545" font-size="16" font-family="HelveticaNeue-Medium, Helvetica Neue" font-weight="500"><tspan x="-69.064" y="0">print(‘hello friend’) </tspan></text><text transform="translate(473 1722)" fill="#5b9bfc" font-size="16" font-family="HelveticaNeue-Bold, Helvetica Neue" font-weight="700"><tspan x="-59.72" y="0">SOURCE CODE</tspan></text></g><g transform="translate(-882 346)"><rect width="221" height="96" rx="11" transform="translate(1419 1300)" fill="#fff"/><path d="M11,0H210a11,11,0,0,1,11,11V25.641H0V11A11,11,0,0,1,11,0Z" transform="translate(1419 1300)" fill="#ff852c"/><text transform="translate(1431 1317)" fill="#fff" font-size="12" font-family="HelveticaNeue-Bold, Helvetica Neue" font-weight="700"><tspan x="0" y="0">Val</tspan></text><rect width="195" height="38" rx="2" transform="translate(1432 1341)" fill="#f8f8f8"/><text transform="translate(1440 1367)" fill="#1d1d1d" font-size="18" font-family="HelveticaNeue, Helvetica Neue"><tspan x="0" y="0">Hello friend</tspan></text></g><line y2="46" transform="translate(651.5 1752.5)" fill="none" stroke="#fff" stroke-linecap="round" stroke-width="2"/><line y2="23.5" transform="translate(660.5 1763.75)" fill="none" stroke="#fff" stroke-linecap="round" stroke-width="2"/><line y2="23.5" transform="translate(642.5 1763.75)" fill="none" stroke="#fff" stroke-linecap="round" stroke-width="2"/></g></svg>