<svg id="Layer_1" data-name="Layer 1" xmlns="http://www.w3.org/2000/svg" viewBox="0 0 132.65 127.6"><defs><style>.cls-1{fill:#6ebf5b;}.cls-2,.cls-3,.cls-4{fill:none;stroke:#414042;stroke-width:5px;}.cls-2,.cls-3{stroke-miterlimit:10;}.cls-3,.cls-4{stroke-linecap:round;}.cls-4{stroke-linejoin:round;}</style></defs><path id="background" class="cls-1" d="M237.2,406.12c22.84,32.41,30.67,24.14,22.4,50.68-3.22,10.36-1.34,19.52,2.75,24.9,8.27,10.89,33,4.65,35.29,4,51.2-13.5,77.92-91,65.83-104.76a20.78,20.78,0,0,0-6.29-4.61c-8.21-3.67-16,.31-22,1.52-15.78,3.18-22.07-12.42-40.64-16.58C267.73,355.31,220.48,382.4,237.2,406.12Z" transform="translate(-233.7 -360.47)"/><circle id="circle" class="cls-2" cx="57.87" cy="65.5" r="48.66"/><g id="arrow"><line class="cls-3" x1="59.05" y1="93.9" x2="59.05" y2="37.31"/><polyline class="cls-4" points="34.4 71.46 59.05 93.9 81.93 71.46"/></g></svg>