<svg id="Layer_1" data-name="Layer 1" xmlns="http://www.w3.org/2000/svg" viewBox="0 0 140.23 61.87"><defs><style>.cls-1{fill:#71caca;}.cls-2,.cls-3{fill:none;stroke:#414042;stroke-linecap:round;stroke-width:5px;}.cls-2{stroke-miterlimit:10;}.cls-3{stroke-linejoin:round;}</style></defs><path class="cls-1" d="M333.36,394.31a110.35,110.35,0,0,0-11.38-.73c-29.84-.29-72.42-.7-84.93,21.5-3.73,6.62-5.69,16.87-1.41,24.4,3.44,6.07,9.82,8.42,12.91,9.51,23.3,8.22,36.07-13.73,63.64-8.74,5.08.92,12.63,3.12,24.06,2.7,6.17-.23,10.6-.39,15.69-2.41,13.18-5.23,24.46-20.4,20.8-29.71-1.14-2.9-3.85-4.49-9.29-7.68C352.27,396.58,341.31,395.22,333.36,394.31Z" transform="translate(-233.21 -393.51)"/><g id="arrow"><line class="cls-2" x1="127.06" y1="34.72" x2="19.52" y2="34.72"/><polyline class="cls-3" points="104.63 59.37 127.06 34.72 104.63 11.84"/></g></svg>