<svg id="Layer_1" data-name="Layer 1" xmlns="http://www.w3.org/2000/svg" viewBox="0 0 72.45 66.17"><defs><style>.cls-1{fill:#9158a3;}.cls-2{fill:none;stroke:#414042;stroke-miterlimit:10;stroke-width:5px;}</style></defs><path class="cls-1" d="M275.24,395c-6.84-.27-17.46,5.7-19.53,15.43a19,19,0,0,0,1.6,11.84c1.71,3.7,4.07,5.72,7.6,8.76a40.36,40.36,0,0,0,13.41,8.12c5.53,1.91,6.89.83,9.51,2.9,4.56,3.59,2.55,8.52,5.63,10.86,5.8,4.39,25.08-3.86,31.83-19.5a32.48,32.48,0,0,0,1.9-18.75c-.15-.84-3.6-18.58-18.17-24.51-1.39-.57-10.75-4.38-16.95-.56-.91.56-1.29,1-3,2a23.5,23.5,0,0,1-10.68,3.52A22.51,22.51,0,0,1,275.24,395Z" transform="translate(-255.34 -387.89)"/><circle class="cls-2" cx="39.65" cy="34.73" r="27.64"/></svg>