<svg id="Layer_1" data-name="Layer 1" xmlns="http://www.w3.org/2000/svg" viewBox="0 0 333.66 334.5"><defs><style>.cls-1{fill:#00adef;}</style></defs><path class="cls-1" d="M879.61,326.85Q969.9,313,1060.39,300.6q.06,79.26,0,158.5c-60.26.23-120.52,1.14-180.82,1.33q0-66.82,0-133.58ZM726.77,348.17c45.32-7,90.83-13,136.34-18.73q.06,65.74.08,131.45c-45.47,0-91,.65-136.42.54Zm0,127.05c45.44-.15,90.87.58,136.3.5,0,43.94.11,87.88,0,131.83-45.39-6.73-90.87-12.61-136.34-18.77ZM879.35,477h181q.12,79,0,158.12c-60.18-9-120.48-17.39-180.78-25.56q-.11-66.27-.26-132.56Zm0,0" transform="translate(-726.77 -300.6)"/></svg>